<?xml version="1.0" standalone="no"?>
<!DOCTYPE svg PUBLIC "-//W3C//DTD SVG 20010904//EN"
 "http://www.w3.org/TR/2001/REC-SVG-20010904/DTD/svg10.dtd">
<svg version="1.0" xmlns="http://www.w3.org/2000/svg"
 width="512.000000pt" height="512.000000pt" viewBox="0 0 512.000000 512.000000"
 preserveAspectRatio="xMidYMid meet">
<metadata>
Created by potrace 1.14, written by Peter Selinger 2001-2017
</metadata>
<g transform="translate(0.000000,512.000000) scale(0.100000,-0.100000)"
fill="#000000" stroke="none">
<path d="M2130 4946 c-188 -35 -348 -121 -482 -258 -123 -125 -189 -245 -235
-429 -3 -13 -8 -132 -10 -264 -3 -132 -6 -241 -7 -242 -1 -2 -200 -3 -442 -3
-466 -1 -492 -3 -583 -50 -63 -31 -141 -114 -176 -185 l-30 -60 -3 -1459 c-1
-946 1 -1479 8 -1514 5 -30 20 -75 32 -101 33 -67 133 -161 204 -191 l59 -25
2080 -2 c2042 -2 2081 -2 2137 17 135 47 228 147 267 285 8 29 10 457 8 1510
l-2 1470 -31 65 c-58 121 -142 192 -269 225 -49 12 -136 15 -497 15 l-438 0
-1 193 c-1 221 -3 251 -30 355 -79 309 -320 547 -649 639 -73 21 -809 28 -910
9z m845 -575 c63 -32 124 -92 155 -156 23 -47 25 -62 28 -257 l4 -208 -602 0
-602 0 4 208 c3 190 5 211 26 252 45 93 122 158 212 180 19 5 190 8 380 7 344
-2 345 -2 395 -26z"/>
</g>
</svg>
