<?xml version="1.0" standalone="no"?>
<!DOCTYPE svg PUBLIC "-//W3C//DTD SVG 20010904//EN"
 "http://www.w3.org/TR/2001/REC-SVG-20010904/DTD/svg10.dtd">
<svg version="1.0" xmlns="http://www.w3.org/2000/svg"
 width="512.000000pt" height="512.000000pt" viewBox="0 0 512.000000 512.000000"
 preserveAspectRatio="xMidYMid meet">
<metadata>
Created by potrace 1.14, written by Peter Selinger 2001-2017
</metadata>
<g transform="translate(0.000000,512.000000) scale(0.100000,-0.100000)"
fill="#000000" stroke="none">
<path d="M2065 3902 c-59 -20 -105 -78 -110 -140 -5 -82 39 -139 135 -172 36
-13 69 -27 75 -32 5 -4 14 -8 21 -8 21 0 156 -80 224 -133 82 -64 137 -121
211 -222 33 -44 63 -84 67 -89 4 -6 -7 -38 -25 -72 -63 -117 -99 -261 -102
-404 l-1 -45 -322 0 -323 0 1 70 c1 90 -19 148 -68 197 -53 53 -88 66 -221 83
-167 22 -189 25 -222 29 -41 6 -193 26 -230 31 -88 12 -224 27 -250 28 -62 1
-116 -23 -165 -73 -61 -60 -71 -95 -71 -248 l-1 -118 -61 0 c-127 0 -157 -40
-157 -210 l0 -112 -53 -68 c-29 -38 -120 -156 -201 -262 l-148 -193 131 -174
c73 -95 140 -182 149 -193 9 -11 40 -51 67 -90 l50 -71 1595 0 c1281 0 1612 3
1682 14 486 75 885 328 1150 730 61 93 141 253 142 287 1 14 4 24 9 21 4 -2 7
69 7 159 l0 163 -33 21 c-294 194 -589 353 -857 464 -144 60 -430 157 -575
195 -105 28 -113 30 -185 45 -25 5 -56 12 -70 15 -48 10 -245 44 -294 50 -27
3 -52 8 -56 10 -4 2 -21 -5 -40 -16 -31 -19 -34 -20 -43 -4 -5 10 -34 47 -65
84 -142 170 -287 284 -477 376 -149 72 -234 95 -290 77z"/>
</g>
</svg>
