<?xml version="1.0" standalone="no"?>
<!DOCTYPE svg PUBLIC "-//W3C//DTD SVG 20010904//EN"
 "http://www.w3.org/TR/2001/REC-SVG-20010904/DTD/svg10.dtd">
<svg version="1.0" xmlns="http://www.w3.org/2000/svg"
 width="512.000000pt" height="512.000000pt" viewBox="0 0 512.000000 512.000000"
 preserveAspectRatio="xMidYMid meet">
<metadata>
Created by potrace 1.14, written by Peter Selinger 2001-2017
</metadata>
<g transform="translate(0.000000,512.000000) scale(0.100000,-0.100000)"
fill="#000000" stroke="none">
<path d="M3602 5094 c-117 -38 -204 -104 -271 -204 -42 -62 -91 -163 -91 -186
0 -9 -30 -28 -77 -50 -118 -52 -123 -55 -193 -99 -204 -129 -314 -334 -337
-621 -4 -57 -1 -85 16 -139 73 -226 222 -404 432 -519 66 -36 217 -92 274
-101 17 -3 55 -10 85 -17 69 -14 293 -18 385 -7 137 17 205 29 205 38 0 3 -17
41 -38 84 -38 76 -38 77 -15 78 13 1 26 2 31 3 4 1 25 5 47 10 55 11 132 47
185 88 25 19 63 44 85 57 22 12 54 41 71 64 83 111 71 232 -40 397 -26 38 -48
86 -54 115 -65 307 -227 504 -463 564 -84 21 -94 36 -98 142 -2 62 26 177 50
204 5 5 9 26 9 46 0 29 -6 43 -26 58 -34 26 -79 25 -172 -5z"/>
<path d="M2476 3561 c-54 -67 -206 -223 -317 -326 -221 -204 -451 -386 -674
-530 -172 -112 -260 -187 -366 -315 -250 -301 -360 -712 -295 -1100 13 -74 29
-140 35 -140 3 0 28 7 55 15 105 32 207 12 269 -53 44 -46 107 -177 107 -223
l0 -40 33 22 c17 13 91 66 162 120 279 207 470 312 700 382 44 14 97 28 119
31 21 4 42 8 46 11 27 17 327 25 440 13 129 -15 270 -50 399 -99 45 -17 85
-28 89 -25 3 4 18 44 33 88 l26 82 20 -44 c10 -25 34 -83 53 -128 l34 -84 111
-73 c102 -69 128 -89 210 -164 133 -122 278 -326 291 -408 l7 -43 51 0 c62 0
98 17 110 51 12 35 2 67 -30 104 -121 136 -253 361 -311 530 -56 165 -68 242
-67 425 2 172 22 250 108 425 35 72 74 154 86 184 27 69 66 219 76 296 10 74
11 314 2 375 -18 120 -15 116 -83 100 -80 -18 -133 -22 -320 -25 -153 -3 -210
0 -295 15 -376 68 -652 255 -815 553 -20 37 -38 67 -40 67 -1 0 -28 -31 -59
-69z"/>
<path d="M2597 1274 c-1 -1 -42 -4 -92 -7 -125 -8 -308 -49 -410 -92 -153 -65
-296 -150 -445 -265 -255 -197 -364 -256 -454 -244 -93 12 -121 61 -80 143 13
25 24 55 24 66 0 23 -45 111 -68 135 -43 43 -176 -6 -271 -99 -206 -201 -168
-536 83 -744 83 -68 175 -113 289 -142 76 -19 114 -23 217 -21 250 5 433 77
777 303 296 194 514 254 908 248 110 -2 211 -6 225 -9 14 -3 48 -7 75 -10 67
-7 152 -23 315 -57 158 -34 171 -35 199 -11 40 32 36 67 -15 149 -208 334
-591 575 -1014 638 -51 8 -258 23 -263 19z"/>
</g>
</svg>
